HIERARCHY
ROOT Hips
{
  OFFSET 155.048 98.1286 3.93448
  CHANNELS 6 Xposition Yposition Zposition Zrotation Xrotation Yrotation
  JOINT RightUpLeg
  {
    OFFSET -8.9458 -8.66707 0.101652
    CHANNELS 3 Zrotation Xrotation Yrotation
    JOINT RightLeg
    {
      OFFSET 0 -44.4227 1.3727
      CHANNELS 3 Zrotation Xrotation Yrotation
      JOINT RightFoot
      {
        OFFSET 0.253549 -42.0924 -1.46059
        CHANNELS 3 Zrotation Xrotation Yrotation
        JOINT RightToes
        {
          OFFSET 0.04 -4.41509 8.4991
          CHANNELS 3 Zrotation Xrotation Yrotation
          End Site
          {
            OFFSET -0.08 -0.137448 9.77979
          }
        }
      }
    }
  }
  JOINT Spine
  {
    OFFSET 0 11.8905 0
    CHANNELS 3 Zrotation Xrotation Yrotation
    JOINT Spine1
    {
      OFFSET 0 25.6574 0.127663
      CHANNELS 3 Zrotation Xrotation Yrotation
      JOINT Head
      {
        OFFSET 0 8.73416 0.011341
        CHANNELS 3 Zrotation Xrotation Yrotation
        End Site
        {
          OFFSET -0.29 12.7742 2.51395
        }
      }
      JOINT LeftShoulder1
      {
        OFFSET 8.99 -0.362252 -0.22
        CHANNELS 3 Zrotation Xrotation Yrotation
        JOINT LeftArm
        {
          OFFSET 10.2827 -0.00337999 0.322123
          CHANNELS 3 Zrotation Xrotation Yrotation
          JOINT LeftForeArm
          {
            OFFSET 26.2597 0.099144 -1.42434
            CHANNELS 3 Zrotation Xrotation Yrotation
            JOINT LeftHand
            {
              OFFSET 22.0902 0.085362 1.02216
              CHANNELS 3 Zrotation Xrotation Yrotation
              End Site
              {
                OFFSET 13.419 -0.6 1.50291
              }
            }
          }
        }
      }
      JOINT RightShoulder
      {
        OFFSET -8.99 -0.362252 -0.22
        CHANNELS 3 Zrotation Xrotation Yrotation
        JOINT RightArm
        {
          OFFSET -10.2827 -0.00338 0.322123
          CHANNELS 3 Zrotation Xrotation Yrotation
          JOINT RightForeArm
          {
            OFFSET -26.364 0.099144 -1.42434
            CHANNELS 3 Zrotation Xrotation Yrotation
            JOINT RightHand
            {
              OFFSET -22.0324 0.085362 1.02216
              CHANNELS 3 Zrotation Xrotation Yrotation
              End Site
              {
                OFFSET -13.3284 -0.6 1.50291
              }
            }
          }
        }
      }
    }
  }
  JOINT LeftUpLeg
  {
    OFFSET 8.9458 -8.66707 0.101652
    CHANNELS 3 Zrotation Xrotation Yrotation
    JOINT LeftLeg
    {
      OFFSET 0 -44.4227 1.3727
      CHANNELS 3 Zrotation Xrotation Yrotation
      JOINT LeftFoot
      {
        OFFSET -0.253549 -42.0924 -1.46059
        CHANNELS 3 Zrotation Xrotation Yrotation
        JOINT LeftToes
        {
          OFFSET -0.04 -4.41509 8.4991
          CHANNELS 3 Zrotation Xrotation Yrotation
          End Site
          {
            OFFSET 0.08 -0.047448 9.77979
          }
        }
      }
    }
  }
}
MOTION
Frames:	14
Frame Time:	0.0333333
-12.7632 100.558 25.5294 -5.80366 2.73503 67.9606 -0.938368 -19.1644 -16.3808 4.12875 24.1471 -45.9698 4.03454 -9.16632 -0.129034 0.0462048 0.000530889 0.662642 9.13781 -17.233 -0.686407 -1.39468 23.8084 -0.873096 -17.778 -9.51879 35.964 -34.361 7.1139 -13.9809 -40.5994 -15.5418 -13.765 -15.3357 -2.41311 -24.9216 21.502 9.18411 1.47932 44.5474 10.6133 16.6595 18.1081 -45.7136 -25.9951 12.4442 11.2384 37.3131 -11.0307 9.11145 3.52482 2.28772 -8.44968 13.178 1.93133 57.2257 21.6356 -5.33143 -5.92089 0.102105 -1.3524e-009 8.75218e-006 -1.47004e-008 
-15.3265 100.867 25.2303 -5.82982 2.37425 79.5032 -1.69982 -18.3673 -15.6699 3.21249 23.7394 -41.7297 5.31429 -7.95949 -0.159389 0.0462048 0.000530889 0.662642 8.5313 -19.1795 -1.0929 -1.42964 24.5665 -1.3107 -18.1247 -9.05903 34.3628 -34.5274 7.04968 -13.754 -41.5412 -18.1562 -12.4707 -15.7519 2.08796 -29.7119 22.2156 9.08628 1.08673 44.4312 10.4753 16.4443 17.7205 -44.9649 -28.8022 12.0805 11.2917 36.5372 -9.87097 9.21516 3.33969 3.65023 -5.33501 15.0991 1.61649 52.9145 19.3028 -6.58919 -5.45063 0.145345 -1.3524e-009 8.75218e-006 -1.47004e-008 
-17.9425 101.145 24.7841 -6.01251 -0.562797 91.2869 -2.9758 -17.0002 -13.865 3.33843 21.8981 -41.6498 6.38852 -7.13798 -0.197524 0.0462048 0.000530889 0.662642 5.69354 -20.6136 -2.21916 0.758079 24.4556 -2.89679 -18.0164 -8.67492 33.2918 -34.5981 6.97109 -13.5341 -42.5519 -19.0647 -11.4311 -15.7542 5.41143 -33.9361 23.1475 8.94565 0.540989 43.8804 10.1946 16.1335 17.7066 -44.4404 -31.0242 11.6797 11.083 35.0642 -8.41972 9.35089 2.94027 6.05786 -3.65825 18.0763 1.29018 47.7796 16.4982 -8.23561 -5.04257 0.204026 -1.3524e-009 8.75218e-006 -1.47004e-008 
-20.8278 101.33 24.2363 -6.44824 -0.03758 105.082 -4.38579 -16.1489 -11.5583 4.17226 19.3693 -51.1282 6.86175 -6.25479 -0.247046 0.0462048 0.000530889 0.662642 1.54364 -21.1559 -4.04845 4.40739 23.5623 -5.25302 -17.4931 -8.98785 32.5686 -34.4978 6.82797 -13.23 -43.3339 -18.3909 -11.569 -15.83 7.20486 -36.809 23.115 8.88473 0.220282 43.1209 9.85558 15.7872 17.857 -44.5118 -33.1589 11.4273 10.5312 33.2523 -7.42446 9.44505 2.54609 9.15364 -4.40028 22.6626 1.09337 43.065 14.6267 -8.99539 -4.87666 0.23334 -1.3524e-009 8.75218e-006 -1.47004e-008 
-24.0223 101.348 23.5703 -6.14145 -2.06347 118.811 -5.9126 -15.8734 -11.944 4.23266 17.534 -61.054 6.56167 -5.24782 -0.294209 0.0462048 0.000530889 0.662642 -1.05726 -20.0644 -5.4564 6.52873 22.1132 -6.86556 -16.9958 -10.2377 31.7347 -34.4656 6.75539 -13.0676 -43.0923 -15.9798 -13.3008 -15.8036 8.08099 -38.2298 22.4575 8.92332 0.26388 42.8577 9.70123 15.5906 17.5816 -45.0694 -35.3552 11.6358 9.19024 31.2148 -7.23151 9.46612 2.39753 11.8667 -6.52101 28.3556 1.00626 38.3549 14.4654 -9.56232 -5.27196 0.217141 -1.3524e-009 8.75218e-006 -1.47004e-008 
-27.3744 101.422 22.7781 -4.94948 -3.1449 131.415 -7.53839 -14.8689 -13.0378 4.08057 16.111 -64.2476 5.7593 -4.26079 -0.321074 0.0462048 0.000530889 0.662642 -0.818136 -17.8731 -5.614 5.60979 20.5644 -6.91803 -16.8552 -11.6918 30.7484 -34.8332 6.93908 -13.3582 -41.745 -12.6295 -15.977 -15.0466 9.01589 -38.4661 22.5635 8.90729 0.206326 43.3271 9.8435 15.6774 16.6378 -45.3349 -37.2177 12.2458 6.77533 28.7494 -7.02216 9.48771 2.24932 13.1581 -8.50988 35.2679 0.990481 32.2759 16.2792 -10.5524 -4.99317 0.260137 -1.3524e-009 8.75218e-006 -1.47004e-008 
-30.898 101.539 21.8985 -3.12126 -4.03863 142.852 -8.8139 -13.1609 -13.4572 3.80897 14.6112 -60.8405 5.76938 -3.37796 -0.361814 0.0462048 0.000530889 0.662642 0.992643 -15.5429 -5.20369 3.50356 19.1261 -6.3415 -17.0565 -12.4581 30.0679 -35.4525 7.26173 -13.869 -40.6357 -9.68683 -18.6544 -13.499 10.2846 -37.7309 23.9415 8.7694 -0.160994 43.935 10.1186 15.9643 15.4511 -44.6484 -38.2613 12.4613 4.11732 25.7426 -5.99202 9.57253 1.85331 12.937 -10.6578 43.0568 1.04146 26.2777 19.4112 -9.00761 -4.68826 0.251619 -1.3524e-009 8.75218e-006 -1.47004e-008 
-34.6232 101.379 21.0208 -1.10255 -4.72581 154.104 -9.97786 -11.672 -13.621 3.12972 14.2497 -55.6389 7.43743 -3.10102 -0.437867 0.0462048 0.000530889 0.662642 2.57029 -13.502 -5.06884 2.41676 17.8527 -6.22996 -17.4986 -12.4869 29.8573 -35.9367 7.493 -14.2069 -40.8292 -7.72424 -21.0729 -12.1161 11.0516 -36.1217 25.6493 8.63126 -0.409261 43.9771 10.2371 16.1764 14.4074 -43.3806 -38.6947 11.6634 2.602 22.3582 -4.76542 9.66457 1.39797 11.5162 -13.9998 45.6948 1.04751 24.1524 22.5749 -4.0115 -6.45342 0.0732378 -1.3524e-009 8.75218e-006 -1.47004e-008 
-38.3273 100.845 20.2352 0.594655 -4.56772 165.158 -11.3603 -10.5889 -14.795 1.75604 16.3162 -48.05 9.52056 -4.60237 -0.402587 0.0462048 0.000530889 0.662642 3.2431 -11.4808 -5.02073 2.29079 16.8197 -6.27822 -17.9768 -12.163 29.6691 -36.1644 7.62792 -14.4232 -41.5479 -6.25477 -23.3313 -12.0413 10.1625 -34.0885 26.5848 8.62812 -0.203371 43.5055 10.1396 16.1843 12.8315 -42.9469 -39.7303 10.3127 2.89118 18.952 -4.50414 9.69005 1.06502 8.40537 -17.9759 37.7743 1.32039 26.5414 25.8184 0.0795175 -9.20931 0.0366715 -1.3524e-009 8.75218e-006 -1.47004e-008 
-41.7114 99.8876 19.5478 1.65993 -3.47707 174.658 -12.4057 -10.7718 -15.0386 -0.670433 21.6613 -35.4898 9.86887 -8.46474 -0.118148 0.0462048 0.000530889 0.662642 3.85478 -9.17627 -4.31593 1.67921 16.0312 -5.44338 -17.9172 -11.6234 29.2397 -36.1357 7.70615 -14.617 -41.5175 -4.90221 -25.0765 -13.3688 7.72098 -32.7353 26.7463 8.74241 0.338059 43.3 10.1 16.1933 9.90931 -43.9321 -42.1597 9.19982 4.30589 15.7964 -5.42722 9.64527 0.883655 4.27789 -20.365 25.6406 1.38312 30.6777 27.4686 1.58238 -11.8366 0.112144 -1.3524e-009 8.75218e-006 -1.47004e-008 
-44.6345 98.775 18.8801 2.0655 -2.19472 -177.897 -12.4656 -12.6938 -7.29734 -1.45912 29.0055 -26.5004 7.59801 -12.7859 0.138842 0.0462048 0.000530889 0.662642 4.56075 -7.14004 -3.05535 -0.178701 15.6735 -3.71901 -17.0168 -11.0014 28.8366 -35.9038 7.67387 -14.6426 -40.7194 -4.32937 -25.7417 -15.1168 5.594 -33.004 26.8864 8.85626 0.865872 43.7713 10.3149 16.4132 7.27526 -44.8022 -44.274 8.36763 4.91073 12.9537 -7.23124 9.54323 0.956525 0.581119 -21.0812 18.0766 1.4154 34.0025 26.2198 2.51254 -14.4682 0.226291 -1.3524e-009 8.75218e-006 -1.47004e-008 
-47.274 97.897 18.1124 2.15236 -1.31126 -170.893 -11.4302 -15.5461 0.256351 -1.25733 36.203 -20.2249 5.94402 -14.7646 0.161092 0.0462048 0.000530889 0.662642 4.71853 -6.18198 -2.16749 -2.03837 16.0959 -2.40784 -15.9394 -10.5537 28.6358 -35.8114 7.60431 -14.5206 -39.9153 -5.33653 -25.3897 -16.1702 5.31428 -34.5399 27.3457 8.89041 1.09551 44.3157 10.5762 16.6873 6.04625 -45.3206 -44.7649 7.69558 4.87059 10.4501 -9.57992 9.40214 1.12807 -2.71096 -20.9624 13.6811 1.40505 36.0345 24.5611 4.34265 -16.7423 0.439696 -1.3524e-009 8.75218e-006 -1.47004e-008 
-49.9392 97.456 17.2719 2.49886 -0.568105 -162.292 -10.0818 -18.0147 2.93288 -1.20987 41.8472 -16.2083 7.59975 -14.2412 0.225017 0.0462048 0.000530889 0.662642 4.54933 -6.07768 -2.2739 -2.21721 16.9942 -2.55238 -15.4353 -10.2188 28.2944 -36.1164 7.65016 -14.4952 -39.6782 -7.61764 -24.8921 -16.1512 6.28026 -35.9333 27.8247 8.85651 1.03065 44.302 10.5894 16.718 6.22934 -45.9021 -44.0615 7.26537 4.59105 9.09768 -11.4657 9.29234 1.15964 -6.16495 -19.8612 7.64677 1.36385 36.885 22.914 6.53567 -18.0065 0.698603 -1.3524e-009 8.75218e-006 -1.47004e-008 
-52.658 97.4114 16.5373 3.18166 0.569004 -151.95 -8.59123 -19.9295 2.83105 -1.2438 45.6727 -15.4226 10.4993 -13.2176 0.311984 0.0462048 0.000530889 0.662642 4.89367 -5.7345 -3.12135 -1.16995 17.357 -3.72156 -15.217 -9.66149 27.3507 -36.527 7.76582 -14.5857 -40.4 -10.1406 -25.0475 -15.5967 7.08969 -36.182 28.1381 8.81989 0.929166 43.9793 10.4007 16.4917 6.98086 -46.667 -43.5118 7.22024 4.28262 9.63519 -11.6986 9.26863 1.27584 -9.17486 -17.4218 -0.562308 1.27336 36.7138 20.6788 8.34756 -18.1192 0.877296 -1.3524e-009 8.75218e-006 -1.47004e-008 
